<svg xmlns="http://www.w3.org/2000/svg" viewBox="0 0 26 26">
  <path d="M19.8125 0C19.675781 0.0078125 19.527344 0.0507813 19.40625 0.125C19.160156 0.269531 19 0.53125 19 0.8125L19 3L18 3C17.328125 3 16.519531 3.09375 15.78125 3.5C15.042969 3.90625 14.480469 4.507813 13.96875 5.1875C13.203125 6.207031 12.261719 7.796875 11.03125 9.875C11.300781 9.222656 11.207031 8.472656 10.78125 7.90625C9.761719 6.210938 9.125 5.144531 8.25 4.28125C7.375 3.417969 6.019531 3 5 3L2 3C1.9375 2.996094 1.875 2.996094 1.8125 3C0.707031 3.050781 -0.144531 3.988281 -0.09375 5.09375C-0.0429688 6.199219 0.894531 7.050781 2 7L5 7C5.5 7 5.160156 6.882813 5.4375 7.15625C5.714844 7.429688 6.378906 8.316406 7.375 9.96875C7.671875 10.582031 8.257813 11.003906 8.9375 11.085938C9.613281 11.167969 10.285156 10.902344 10.71875 10.375C10.390625 10.929688 10.175781 11.3125 9.78125 11.96875C7.667969 15.472656 6.488281 17.507813 5.8125 18.40625C5.472656 18.855469 5.324219 18.960938 5.3125 18.96875C5.300781 18.976563 5.328125 19 5 19L2 19C1.277344 18.988281 0.609375 19.367188 0.246094 19.992188C-0.121094 20.613281 -0.121094 21.386719 0.246094 22.007813C0.609375 22.632813 1.277344 23.011719 2 23L5 23C5.671875 23 6.480469 22.902344 7.21875 22.5C7.957031 22.097656 8.519531 21.492188 9.03125 20.8125C10.054688 19.453125 11.128906 17.5 13.21875 14.03125C15.332031 10.523438 16.480469 8.492188 17.15625 7.59375C17.492188 7.144531 17.675781 7.039063 17.6875 7.03125C17.699219 7.023438 17.667969 7 18 7L19 7L19 9.1875C19 9.46875 19.160156 9.730469 19.40625 9.875C19.539063 9.957031 19.691406 10 19.84375 10C19.972656 10 20.101563 9.964844 20.21875 9.90625L25.46875 5.71875C25.722656 5.480469 25.9375 5.308594 25.9375 5C25.9375 4.695313 25.753906 4.535156 25.46875 4.28125L20.21875 0.09375C20.089844 0.0273438 19.949219 -0.0078125 19.8125 0 Z M 19.8125 16C19.675781 16.007813 19.527344 16.050781 19.40625 16.125C19.160156 16.269531 19 16.53125 19 16.8125L19 19L18 19C17.550781 19 17.789063 19.078125 17.625 18.9375C17.460938 18.796875 16.960938 18.195313 16.21875 17C15.835938 16.355469 15.121094 15.984375 14.375 16.03125C13.671875 16.078125 13.042969 16.488281 12.722656 17.117188C12.402344 17.746094 12.4375 18.496094 12.8125 19.09375C13.609375 20.382813 14.183594 21.25 15.03125 21.96875C15.878906 22.6875 17.085938 23 18 23L19 23L19 25.1875C19 25.46875 19.160156 25.730469 19.40625 25.875C19.539063 25.957031 19.691406 26 19.84375 26C19.972656 26 20.101563 25.964844 20.21875 25.90625L25.46875 21.71875C25.722656 21.480469 25.9375 21.308594 25.9375 21C25.9375 20.695313 25.753906 20.535156 25.46875 20.28125L20.21875 16.09375C20.089844 16.027344 19.949219 15.992188 19.8125 16Z" fill="white" />
</svg>